<mxfile host="app.diagrams.net" modified="2022-01-19T10:09:32.475Z" agent="5.0 (Macintosh; Intel Mac OS X 10_15_7) AppleWebKit/537.36 (KHTML, like Gecko) Chrome/97.0.4692.71 Safari/537.36" etag="GSylHkuLAxmMawpybxma" version="14.7.4" type="github" pages="2">
  <diagram id="clHqaouh2vuNAJYTrVcC" name="Information">
    <mxGraphModel dx="2066" dy="826" grid="1" gridSize="10" guides="1" tooltips="1" connect="1" arrows="1" fold="1" page="1" pageScale="1" pageWidth="850" pageHeight="1100" math="0" shadow="0">
      <root>
        <mxCell id="0" />
        <mxCell id="1" parent="0" />
        <mxCell id="kEWfRfj77trai1BPQBJ3-1" value="&lt;b&gt;All Suspend - Reconnect&lt;/b&gt;" style="text;html=1;strokeColor=none;fillColor=none;align=center;verticalAlign=middle;whiteSpace=wrap;rounded=0;" vertex="1" parent="1">
          <mxGeometry x="10" y="30" width="160" height="20" as="geometry" />
        </mxCell>
        <mxCell id="kEWfRfj77trai1BPQBJ3-58" value="" style="shape=table;html=1;whiteSpace=wrap;startSize=0;container=1;collapsible=0;childLayout=tableLayout;" vertex="1" parent="1">
          <mxGeometry x="10" y="60" width="820" height="477" as="geometry" />
        </mxCell>
        <mxCell id="kEWfRfj77trai1BPQBJ3-59" value="" style="shape=partialRectangle;html=1;whiteSpace=wrap;collapsible=0;dropTarget=0;pointerEvents=0;fillColor=none;top=0;left=0;bottom=0;right=0;points=[[0,0.5],[1,0.5]];portConstraint=eastwest;" vertex="1" parent="kEWfRfj77trai1BPQBJ3-58">
          <mxGeometry width="820" height="47" as="geometry" />
        </mxCell>
        <mxCell id="kEWfRfj77trai1BPQBJ3-60" value="No." style="shape=partialRectangle;html=1;whiteSpace=wrap;connectable=0;overflow=hidden;fillColor=none;top=0;left=0;bottom=0;right=0;" vertex="1" parent="kEWfRfj77trai1BPQBJ3-59">
          <mxGeometry width="79" height="47" as="geometry" />
        </mxCell>
        <mxCell id="kEWfRfj77trai1BPQBJ3-61" value="Order Suspend - Reconnect" style="shape=partialRectangle;html=1;whiteSpace=wrap;connectable=0;overflow=hidden;fillColor=none;top=0;left=0;bottom=0;right=0;" vertex="1" parent="kEWfRfj77trai1BPQBJ3-59">
          <mxGeometry x="79" width="249" height="47" as="geometry" />
        </mxCell>
        <mxCell id="kEWfRfj77trai1BPQBJ3-62" value="Postpaid" style="shape=partialRectangle;html=1;whiteSpace=wrap;connectable=0;overflow=hidden;fillColor=none;top=0;left=0;bottom=0;right=0;" vertex="1" parent="kEWfRfj77trai1BPQBJ3-59">
          <mxGeometry x="328" width="112" height="47" as="geometry" />
        </mxCell>
        <mxCell id="kEWfRfj77trai1BPQBJ3-63" value="Prepaid" style="shape=partialRectangle;html=1;whiteSpace=wrap;connectable=0;overflow=hidden;fillColor=none;top=0;left=0;bottom=0;right=0;" vertex="1" parent="kEWfRfj77trai1BPQBJ3-59">
          <mxGeometry x="440" width="110" height="47" as="geometry" />
        </mxCell>
        <mxCell id="kEWfRfj77trai1BPQBJ3-64" value="หมายเหตุ" style="shape=partialRectangle;html=1;whiteSpace=wrap;connectable=0;overflow=hidden;fillColor=none;top=0;left=0;bottom=0;right=0;" vertex="1" parent="kEWfRfj77trai1BPQBJ3-59">
          <mxGeometry x="550" width="270" height="47" as="geometry" />
        </mxCell>
        <mxCell id="kEWfRfj77trai1BPQBJ3-65" value="" style="shape=partialRectangle;html=1;whiteSpace=wrap;collapsible=0;dropTarget=0;pointerEvents=0;fillColor=none;top=0;left=0;bottom=0;right=0;points=[[0,0.5],[1,0.5]];portConstraint=eastwest;" vertex="1" parent="kEWfRfj77trai1BPQBJ3-58">
          <mxGeometry y="47" width="820" height="43" as="geometry" />
        </mxCell>
        <mxCell id="kEWfRfj77trai1BPQBJ3-66" value="1" style="shape=partialRectangle;html=1;whiteSpace=wrap;connectable=0;overflow=hidden;fillColor=none;top=0;left=0;bottom=0;right=0;" vertex="1" parent="kEWfRfj77trai1BPQBJ3-65">
          <mxGeometry width="79" height="43" as="geometry" />
        </mxCell>
        <mxCell id="kEWfRfj77trai1BPQBJ3-67" value="Suspend Customer Request&amp;nbsp;" style="shape=partialRectangle;html=1;whiteSpace=wrap;connectable=0;overflow=hidden;fillColor=none;top=0;left=0;bottom=0;right=0;" vertex="1" parent="kEWfRfj77trai1BPQBJ3-65">
          <mxGeometry x="79" width="249" height="43" as="geometry" />
        </mxCell>
        <mxCell id="kEWfRfj77trai1BPQBJ3-68" value="" style="shape=partialRectangle;html=1;whiteSpace=wrap;connectable=0;overflow=hidden;fillColor=none;top=0;left=0;bottom=0;right=0;" vertex="1" parent="kEWfRfj77trai1BPQBJ3-65">
          <mxGeometry x="328" width="112" height="43" as="geometry" />
        </mxCell>
        <mxCell id="kEWfRfj77trai1BPQBJ3-69" value="" style="shape=partialRectangle;html=1;whiteSpace=wrap;connectable=0;overflow=hidden;fillColor=none;top=0;left=0;bottom=0;right=0;" vertex="1" parent="kEWfRfj77trai1BPQBJ3-65">
          <mxGeometry x="440" width="110" height="43" as="geometry" />
        </mxCell>
        <mxCell id="kEWfRfj77trai1BPQBJ3-70" value="&lt;font style=&quot;font-size: 12px&quot;&gt;&amp;nbsp; Suspend การใช้งานชั่วคราวโดยลูกค้าแจ้งดำเนินการ&lt;/font&gt;" style="shape=partialRectangle;html=1;whiteSpace=wrap;connectable=0;overflow=hidden;fillColor=none;top=0;left=0;bottom=0;right=0;fontSize=10;align=left;" vertex="1" parent="kEWfRfj77trai1BPQBJ3-65">
          <mxGeometry x="550" width="270" height="43" as="geometry" />
        </mxCell>
        <mxCell id="kEWfRfj77trai1BPQBJ3-71" value="" style="shape=partialRectangle;html=1;whiteSpace=wrap;collapsible=0;dropTarget=0;pointerEvents=0;fillColor=none;top=0;left=0;bottom=0;right=0;points=[[0,0.5],[1,0.5]];portConstraint=eastwest;" vertex="1" parent="kEWfRfj77trai1BPQBJ3-58">
          <mxGeometry y="90" width="820" height="47" as="geometry" />
        </mxCell>
        <mxCell id="kEWfRfj77trai1BPQBJ3-72" value="2" style="shape=partialRectangle;html=1;whiteSpace=wrap;connectable=0;overflow=hidden;fillColor=none;top=0;left=0;bottom=0;right=0;" vertex="1" parent="kEWfRfj77trai1BPQBJ3-71">
          <mxGeometry width="79" height="47" as="geometry" />
        </mxCell>
        <mxCell id="kEWfRfj77trai1BPQBJ3-73" value="Reconnect Customer Request" style="shape=partialRectangle;html=1;whiteSpace=wrap;connectable=0;overflow=hidden;fillColor=none;top=0;left=0;bottom=0;right=0;" vertex="1" parent="kEWfRfj77trai1BPQBJ3-71">
          <mxGeometry x="79" width="249" height="47" as="geometry" />
        </mxCell>
        <mxCell id="kEWfRfj77trai1BPQBJ3-74" value="" style="shape=partialRectangle;html=1;whiteSpace=wrap;connectable=0;overflow=hidden;fillColor=none;top=0;left=0;bottom=0;right=0;" vertex="1" parent="kEWfRfj77trai1BPQBJ3-71">
          <mxGeometry x="328" width="112" height="47" as="geometry" />
        </mxCell>
        <mxCell id="kEWfRfj77trai1BPQBJ3-75" value="" style="shape=partialRectangle;html=1;whiteSpace=wrap;connectable=0;overflow=hidden;fillColor=none;top=0;left=0;bottom=0;right=0;" vertex="1" parent="kEWfRfj77trai1BPQBJ3-71">
          <mxGeometry x="440" width="110" height="47" as="geometry" />
        </mxCell>
        <mxCell id="kEWfRfj77trai1BPQBJ3-76" value="&amp;nbsp; Reconnect การใช้งานโดยลูกค้าแจ้งดำเนินการ" style="shape=partialRectangle;html=1;whiteSpace=wrap;connectable=0;overflow=hidden;fillColor=none;top=0;left=0;bottom=0;right=0;align=left;" vertex="1" parent="kEWfRfj77trai1BPQBJ3-71">
          <mxGeometry x="550" width="270" height="47" as="geometry" />
        </mxCell>
        <mxCell id="kEWfRfj77trai1BPQBJ3-77" value="" style="shape=partialRectangle;html=1;whiteSpace=wrap;collapsible=0;dropTarget=0;pointerEvents=0;fillColor=none;top=0;left=0;bottom=0;right=0;points=[[0,0.5],[1,0.5]];portConstraint=eastwest;" vertex="1" parent="kEWfRfj77trai1BPQBJ3-58">
          <mxGeometry y="137" width="820" height="47" as="geometry" />
        </mxCell>
        <mxCell id="kEWfRfj77trai1BPQBJ3-78" value="3" style="shape=partialRectangle;html=1;whiteSpace=wrap;connectable=0;overflow=hidden;fillColor=none;top=0;left=0;bottom=0;right=0;" vertex="1" parent="kEWfRfj77trai1BPQBJ3-77">
          <mxGeometry width="79" height="47" as="geometry" />
        </mxCell>
        <mxCell id="kEWfRfj77trai1BPQBJ3-79" value="Future Suspend Customer Request" style="shape=partialRectangle;html=1;whiteSpace=wrap;connectable=0;overflow=hidden;fillColor=none;top=0;left=0;bottom=0;right=0;" vertex="1" parent="kEWfRfj77trai1BPQBJ3-77">
          <mxGeometry x="79" width="249" height="47" as="geometry" />
        </mxCell>
        <mxCell id="kEWfRfj77trai1BPQBJ3-80" value="" style="shape=partialRectangle;html=1;whiteSpace=wrap;connectable=0;overflow=hidden;fillColor=none;top=0;left=0;bottom=0;right=0;" vertex="1" parent="kEWfRfj77trai1BPQBJ3-77">
          <mxGeometry x="328" width="112" height="47" as="geometry" />
        </mxCell>
        <mxCell id="kEWfRfj77trai1BPQBJ3-81" value="-" style="shape=partialRectangle;html=1;whiteSpace=wrap;connectable=0;overflow=hidden;fillColor=none;top=0;left=0;bottom=0;right=0;" vertex="1" parent="kEWfRfj77trai1BPQBJ3-77">
          <mxGeometry x="440" width="110" height="47" as="geometry" />
        </mxCell>
        <mxCell id="kEWfRfj77trai1BPQBJ3-82" value="&amp;nbsp; Suspend การใช้งานชั่วคราวโดยลูกค้าแจ้งดำเนินการ" style="shape=partialRectangle;html=1;whiteSpace=wrap;connectable=0;overflow=hidden;fillColor=none;top=0;left=0;bottom=0;right=0;align=left;" vertex="1" parent="kEWfRfj77trai1BPQBJ3-77">
          <mxGeometry x="550" width="270" height="47" as="geometry" />
        </mxCell>
        <mxCell id="kEWfRfj77trai1BPQBJ3-83" value="" style="shape=partialRectangle;html=1;whiteSpace=wrap;collapsible=0;dropTarget=0;pointerEvents=0;fillColor=none;top=0;left=0;bottom=0;right=0;points=[[0,0.5],[1,0.5]];portConstraint=eastwest;" vertex="1" parent="kEWfRfj77trai1BPQBJ3-58">
          <mxGeometry y="184" width="820" height="47" as="geometry" />
        </mxCell>
        <mxCell id="kEWfRfj77trai1BPQBJ3-84" value="4" style="shape=partialRectangle;html=1;whiteSpace=wrap;connectable=0;overflow=hidden;fillColor=none;top=0;left=0;bottom=0;right=0;" vertex="1" parent="kEWfRfj77trai1BPQBJ3-83">
          <mxGeometry width="79" height="47" as="geometry" />
        </mxCell>
        <mxCell id="kEWfRfj77trai1BPQBJ3-85" value="Suspend - Fraud" style="shape=partialRectangle;html=1;whiteSpace=wrap;connectable=0;overflow=hidden;fillColor=none;top=0;left=0;bottom=0;right=0;" vertex="1" parent="kEWfRfj77trai1BPQBJ3-83">
          <mxGeometry x="79" width="249" height="47" as="geometry" />
        </mxCell>
        <mxCell id="kEWfRfj77trai1BPQBJ3-86" value="" style="shape=partialRectangle;html=1;whiteSpace=wrap;connectable=0;overflow=hidden;fillColor=none;top=0;left=0;bottom=0;right=0;" vertex="1" parent="kEWfRfj77trai1BPQBJ3-83">
          <mxGeometry x="328" width="112" height="47" as="geometry" />
        </mxCell>
        <mxCell id="kEWfRfj77trai1BPQBJ3-87" value="" style="shape=partialRectangle;html=1;whiteSpace=wrap;connectable=0;overflow=hidden;fillColor=none;top=0;left=0;bottom=0;right=0;" vertex="1" parent="kEWfRfj77trai1BPQBJ3-83">
          <mxGeometry x="440" width="110" height="47" as="geometry" />
        </mxCell>
        <mxCell id="kEWfRfj77trai1BPQBJ3-88" value="&amp;nbsp; ระบบ Auto suspend กรณีใช้งานผิดเงื่อนไข" style="shape=partialRectangle;html=1;whiteSpace=wrap;connectable=0;overflow=hidden;fillColor=none;top=0;left=0;bottom=0;right=0;align=left;" vertex="1" parent="kEWfRfj77trai1BPQBJ3-83">
          <mxGeometry x="550" width="270" height="47" as="geometry" />
        </mxCell>
        <mxCell id="kEWfRfj77trai1BPQBJ3-89" value="" style="shape=partialRectangle;html=1;whiteSpace=wrap;collapsible=0;dropTarget=0;pointerEvents=0;fillColor=none;top=0;left=0;bottom=0;right=0;points=[[0,0.5],[1,0.5]];portConstraint=eastwest;" vertex="1" parent="kEWfRfj77trai1BPQBJ3-58">
          <mxGeometry y="231" width="820" height="47" as="geometry" />
        </mxCell>
        <mxCell id="kEWfRfj77trai1BPQBJ3-90" value="5" style="shape=partialRectangle;html=1;whiteSpace=wrap;connectable=0;overflow=hidden;fillColor=none;top=0;left=0;bottom=0;right=0;" vertex="1" parent="kEWfRfj77trai1BPQBJ3-89">
          <mxGeometry width="79" height="47" as="geometry" />
        </mxCell>
        <mxCell id="kEWfRfj77trai1BPQBJ3-91" value="Reconnect Fraud" style="shape=partialRectangle;html=1;whiteSpace=wrap;connectable=0;overflow=hidden;fillColor=none;top=0;left=0;bottom=0;right=0;" vertex="1" parent="kEWfRfj77trai1BPQBJ3-89">
          <mxGeometry x="79" width="249" height="47" as="geometry" />
        </mxCell>
        <mxCell id="kEWfRfj77trai1BPQBJ3-92" value="" style="shape=partialRectangle;html=1;whiteSpace=wrap;connectable=0;overflow=hidden;fillColor=none;top=0;left=0;bottom=0;right=0;" vertex="1" parent="kEWfRfj77trai1BPQBJ3-89">
          <mxGeometry x="328" width="112" height="47" as="geometry" />
        </mxCell>
        <mxCell id="kEWfRfj77trai1BPQBJ3-93" value="" style="shape=partialRectangle;html=1;whiteSpace=wrap;connectable=0;overflow=hidden;fillColor=none;top=0;left=0;bottom=0;right=0;" vertex="1" parent="kEWfRfj77trai1BPQBJ3-89">
          <mxGeometry x="440" width="110" height="47" as="geometry" />
        </mxCell>
        <mxCell id="kEWfRfj77trai1BPQBJ3-94" value="&amp;nbsp; Reconnect การใช้งานโดยลูกค้าแจ้ง พนักงานตรวจสอบและทำ Reconnect Fraud ให้ลูกค้าตามสาเหตุ" style="shape=partialRectangle;html=1;whiteSpace=wrap;connectable=0;overflow=hidden;fillColor=none;top=0;left=0;bottom=0;right=0;align=left;" vertex="1" parent="kEWfRfj77trai1BPQBJ3-89">
          <mxGeometry x="550" width="270" height="47" as="geometry" />
        </mxCell>
        <mxCell id="kEWfRfj77trai1BPQBJ3-95" value="" style="shape=partialRectangle;html=1;whiteSpace=wrap;collapsible=0;dropTarget=0;pointerEvents=0;fillColor=none;top=0;left=0;bottom=0;right=0;points=[[0,0.5],[1,0.5]];portConstraint=eastwest;" vertex="1" parent="kEWfRfj77trai1BPQBJ3-58">
          <mxGeometry y="278" width="820" height="58" as="geometry" />
        </mxCell>
        <mxCell id="kEWfRfj77trai1BPQBJ3-96" value="6" style="shape=partialRectangle;html=1;whiteSpace=wrap;connectable=0;overflow=hidden;fillColor=none;top=0;left=0;bottom=0;right=0;" vertex="1" parent="kEWfRfj77trai1BPQBJ3-95">
          <mxGeometry width="79" height="58" as="geometry" />
        </mxCell>
        <mxCell id="kEWfRfj77trai1BPQBJ3-97" value="Suspend - Debt" style="shape=partialRectangle;html=1;whiteSpace=wrap;connectable=0;overflow=hidden;fillColor=none;top=0;left=0;bottom=0;right=0;" vertex="1" parent="kEWfRfj77trai1BPQBJ3-95">
          <mxGeometry x="79" width="249" height="58" as="geometry" />
        </mxCell>
        <mxCell id="kEWfRfj77trai1BPQBJ3-98" value="" style="shape=partialRectangle;html=1;whiteSpace=wrap;connectable=0;overflow=hidden;fillColor=none;top=0;left=0;bottom=0;right=0;" vertex="1" parent="kEWfRfj77trai1BPQBJ3-95">
          <mxGeometry x="328" width="112" height="58" as="geometry" />
        </mxCell>
        <mxCell id="kEWfRfj77trai1BPQBJ3-99" value="-" style="shape=partialRectangle;html=1;whiteSpace=wrap;connectable=0;overflow=hidden;fillColor=none;top=0;left=0;bottom=0;right=0;" vertex="1" parent="kEWfRfj77trai1BPQBJ3-95">
          <mxGeometry x="440" width="110" height="58" as="geometry" />
        </mxCell>
        <mxCell id="kEWfRfj77trai1BPQBJ3-100" value="&amp;nbsp; ระบบ Auto Suspend กรณีมีแอดค่าบริการเกินกำหนดชำระ" style="shape=partialRectangle;html=1;whiteSpace=wrap;connectable=0;overflow=hidden;fillColor=none;top=0;left=0;bottom=0;right=0;align=left;" vertex="1" parent="kEWfRfj77trai1BPQBJ3-95">
          <mxGeometry x="550" width="270" height="58" as="geometry" />
        </mxCell>
        <mxCell id="kEWfRfj77trai1BPQBJ3-101" value="" style="shape=partialRectangle;html=1;whiteSpace=wrap;collapsible=0;dropTarget=0;pointerEvents=0;fillColor=none;top=0;left=0;bottom=0;right=0;points=[[0,0.5],[1,0.5]];portConstraint=eastwest;" vertex="1" parent="kEWfRfj77trai1BPQBJ3-58">
          <mxGeometry y="336" width="820" height="47" as="geometry" />
        </mxCell>
        <mxCell id="kEWfRfj77trai1BPQBJ3-102" value="7" style="shape=partialRectangle;html=1;whiteSpace=wrap;connectable=0;overflow=hidden;fillColor=none;top=0;left=0;bottom=0;right=0;" vertex="1" parent="kEWfRfj77trai1BPQBJ3-101">
          <mxGeometry width="79" height="47" as="geometry" />
        </mxCell>
        <mxCell id="kEWfRfj77trai1BPQBJ3-103" value="Reconnect Debt" style="shape=partialRectangle;html=1;whiteSpace=wrap;connectable=0;overflow=hidden;fillColor=none;top=0;left=0;bottom=0;right=0;" vertex="1" parent="kEWfRfj77trai1BPQBJ3-101">
          <mxGeometry x="79" width="249" height="47" as="geometry" />
        </mxCell>
        <mxCell id="kEWfRfj77trai1BPQBJ3-104" value="" style="shape=partialRectangle;html=1;whiteSpace=wrap;connectable=0;overflow=hidden;fillColor=none;top=0;left=0;bottom=0;right=0;" vertex="1" parent="kEWfRfj77trai1BPQBJ3-101">
          <mxGeometry x="328" width="112" height="47" as="geometry" />
        </mxCell>
        <mxCell id="kEWfRfj77trai1BPQBJ3-105" value="-" style="shape=partialRectangle;html=1;whiteSpace=wrap;connectable=0;overflow=hidden;fillColor=none;top=0;left=0;bottom=0;right=0;" vertex="1" parent="kEWfRfj77trai1BPQBJ3-101">
          <mxGeometry x="440" width="110" height="47" as="geometry" />
        </mxCell>
        <mxCell id="kEWfRfj77trai1BPQBJ3-106" value="&amp;nbsp; ระบบ Auto Reconnect เพื่อชำระยอดค้าง" style="shape=partialRectangle;html=1;whiteSpace=wrap;connectable=0;overflow=hidden;fillColor=none;top=0;left=0;bottom=0;right=0;align=left;" vertex="1" parent="kEWfRfj77trai1BPQBJ3-101">
          <mxGeometry x="550" width="270" height="47" as="geometry" />
        </mxCell>
        <mxCell id="kEWfRfj77trai1BPQBJ3-107" value="" style="shape=partialRectangle;html=1;whiteSpace=wrap;collapsible=0;dropTarget=0;pointerEvents=0;fillColor=none;top=0;left=0;bottom=0;right=0;points=[[0,0.5],[1,0.5]];portConstraint=eastwest;" vertex="1" parent="kEWfRfj77trai1BPQBJ3-58">
          <mxGeometry y="383" width="820" height="47" as="geometry" />
        </mxCell>
        <mxCell id="kEWfRfj77trai1BPQBJ3-108" value="8" style="shape=partialRectangle;html=1;whiteSpace=wrap;connectable=0;overflow=hidden;fillColor=none;top=0;left=0;bottom=0;right=0;" vertex="1" parent="kEWfRfj77trai1BPQBJ3-107">
          <mxGeometry width="79" height="47" as="geometry" />
        </mxCell>
        <mxCell id="kEWfRfj77trai1BPQBJ3-109" value="Suspend - Credit Limit" style="shape=partialRectangle;html=1;whiteSpace=wrap;connectable=0;overflow=hidden;fillColor=none;top=0;left=0;bottom=0;right=0;" vertex="1" parent="kEWfRfj77trai1BPQBJ3-107">
          <mxGeometry x="79" width="249" height="47" as="geometry" />
        </mxCell>
        <mxCell id="kEWfRfj77trai1BPQBJ3-110" value="" style="shape=partialRectangle;html=1;whiteSpace=wrap;connectable=0;overflow=hidden;fillColor=none;top=0;left=0;bottom=0;right=0;" vertex="1" parent="kEWfRfj77trai1BPQBJ3-107">
          <mxGeometry x="328" width="112" height="47" as="geometry" />
        </mxCell>
        <mxCell id="kEWfRfj77trai1BPQBJ3-111" value="-" style="shape=partialRectangle;html=1;whiteSpace=wrap;connectable=0;overflow=hidden;fillColor=none;top=0;left=0;bottom=0;right=0;" vertex="1" parent="kEWfRfj77trai1BPQBJ3-107">
          <mxGeometry x="440" width="110" height="47" as="geometry" />
        </mxCell>
        <mxCell id="kEWfRfj77trai1BPQBJ3-112" value="&amp;nbsp; ระบบ Auto Suspend กรณีมีค่าใช้บริการเกินวงเงิน" style="shape=partialRectangle;html=1;whiteSpace=wrap;connectable=0;overflow=hidden;fillColor=none;top=0;left=0;bottom=0;right=0;align=left;" vertex="1" parent="kEWfRfj77trai1BPQBJ3-107">
          <mxGeometry x="550" width="270" height="47" as="geometry" />
        </mxCell>
        <mxCell id="kEWfRfj77trai1BPQBJ3-113" value="" style="shape=partialRectangle;html=1;whiteSpace=wrap;collapsible=0;dropTarget=0;pointerEvents=0;fillColor=none;top=0;left=0;bottom=0;right=0;points=[[0,0.5],[1,0.5]];portConstraint=eastwest;" vertex="1" parent="kEWfRfj77trai1BPQBJ3-58">
          <mxGeometry y="430" width="820" height="47" as="geometry" />
        </mxCell>
        <mxCell id="kEWfRfj77trai1BPQBJ3-114" value="9" style="shape=partialRectangle;html=1;whiteSpace=wrap;connectable=0;overflow=hidden;fillColor=none;top=0;left=0;bottom=0;right=0;" vertex="1" parent="kEWfRfj77trai1BPQBJ3-113">
          <mxGeometry width="79" height="47" as="geometry" />
        </mxCell>
        <mxCell id="kEWfRfj77trai1BPQBJ3-115" value="Reconnect - Creedit Limit" style="shape=partialRectangle;html=1;whiteSpace=wrap;connectable=0;overflow=hidden;fillColor=none;top=0;left=0;bottom=0;right=0;" vertex="1" parent="kEWfRfj77trai1BPQBJ3-113">
          <mxGeometry x="79" width="249" height="47" as="geometry" />
        </mxCell>
        <mxCell id="kEWfRfj77trai1BPQBJ3-116" value="" style="shape=partialRectangle;html=1;whiteSpace=wrap;connectable=0;overflow=hidden;fillColor=none;top=0;left=0;bottom=0;right=0;" vertex="1" parent="kEWfRfj77trai1BPQBJ3-113">
          <mxGeometry x="328" width="112" height="47" as="geometry" />
        </mxCell>
        <mxCell id="kEWfRfj77trai1BPQBJ3-117" value="-" style="shape=partialRectangle;html=1;whiteSpace=wrap;connectable=0;overflow=hidden;fillColor=none;top=0;left=0;bottom=0;right=0;" vertex="1" parent="kEWfRfj77trai1BPQBJ3-113">
          <mxGeometry x="440" width="110" height="47" as="geometry" />
        </mxCell>
        <mxCell id="kEWfRfj77trai1BPQBJ3-118" value="&amp;nbsp; ระบบ Auto Reconnect เมื่อชำระยอดค้างและยอดที่เกินจากวงเเงินหรือเพิ่มวงเงินชั่วคราว" style="shape=partialRectangle;html=1;whiteSpace=wrap;connectable=0;overflow=hidden;fillColor=none;top=0;left=0;bottom=0;right=0;align=left;" vertex="1" parent="kEWfRfj77trai1BPQBJ3-113">
          <mxGeometry x="550" width="270" height="47" as="geometry" />
        </mxCell>
        <mxCell id="kEWfRfj77trai1BPQBJ3-120" value="" style="verticalLabelPosition=bottom;verticalAlign=top;html=1;shape=mxgraph.basic.tick;startSize=0;fillColor=#000000;" vertex="1" parent="1">
          <mxGeometry x="390" y="110" width="20" height="30" as="geometry" />
        </mxCell>
        <mxCell id="kEWfRfj77trai1BPQBJ3-121" value="" style="verticalLabelPosition=bottom;verticalAlign=top;html=1;shape=mxgraph.basic.tick;startSize=0;fillColor=#000000;" vertex="1" parent="1">
          <mxGeometry x="500" y="110" width="20" height="30" as="geometry" />
        </mxCell>
        <mxCell id="kEWfRfj77trai1BPQBJ3-122" value="" style="verticalLabelPosition=bottom;verticalAlign=top;html=1;shape=mxgraph.basic.tick;startSize=0;fillColor=#000000;" vertex="1" parent="1">
          <mxGeometry x="390" y="160" width="20" height="30" as="geometry" />
        </mxCell>
        <mxCell id="kEWfRfj77trai1BPQBJ3-123" value="" style="verticalLabelPosition=bottom;verticalAlign=top;html=1;shape=mxgraph.basic.tick;startSize=0;fillColor=#000000;" vertex="1" parent="1">
          <mxGeometry x="390" y="200" width="20" height="30" as="geometry" />
        </mxCell>
        <mxCell id="kEWfRfj77trai1BPQBJ3-124" value="" style="verticalLabelPosition=bottom;verticalAlign=top;html=1;shape=mxgraph.basic.tick;startSize=0;fillColor=#000000;" vertex="1" parent="1">
          <mxGeometry x="500" y="160" width="20" height="30" as="geometry" />
        </mxCell>
        <mxCell id="kEWfRfj77trai1BPQBJ3-125" value="" style="verticalLabelPosition=bottom;verticalAlign=top;html=1;shape=mxgraph.basic.tick;startSize=0;fillColor=#000000;" vertex="1" parent="1">
          <mxGeometry x="390" y="250" width="20" height="30" as="geometry" />
        </mxCell>
        <mxCell id="kEWfRfj77trai1BPQBJ3-127" value="" style="verticalLabelPosition=bottom;verticalAlign=top;html=1;shape=mxgraph.basic.tick;startSize=0;fillColor=#000000;" vertex="1" parent="1">
          <mxGeometry x="390" y="300" width="20" height="30" as="geometry" />
        </mxCell>
        <mxCell id="kEWfRfj77trai1BPQBJ3-128" value="" style="verticalLabelPosition=bottom;verticalAlign=top;html=1;shape=mxgraph.basic.tick;startSize=0;fillColor=#000000;" vertex="1" parent="1">
          <mxGeometry x="500" y="300" width="20" height="30" as="geometry" />
        </mxCell>
        <mxCell id="kEWfRfj77trai1BPQBJ3-129" value="" style="verticalLabelPosition=bottom;verticalAlign=top;html=1;shape=mxgraph.basic.tick;startSize=0;fillColor=#000000;" vertex="1" parent="1">
          <mxGeometry x="390" y="350" width="20" height="30" as="geometry" />
        </mxCell>
        <mxCell id="kEWfRfj77trai1BPQBJ3-130" value="" style="verticalLabelPosition=bottom;verticalAlign=top;html=1;shape=mxgraph.basic.tick;startSize=0;fillColor=#000000;" vertex="1" parent="1">
          <mxGeometry x="500" y="250" width="20" height="30" as="geometry" />
        </mxCell>
        <mxCell id="kEWfRfj77trai1BPQBJ3-131" value="" style="verticalLabelPosition=bottom;verticalAlign=top;html=1;shape=mxgraph.basic.tick;startSize=0;fillColor=#000000;" vertex="1" parent="1">
          <mxGeometry x="390" y="400" width="20" height="30" as="geometry" />
        </mxCell>
        <mxCell id="kEWfRfj77trai1BPQBJ3-133" value="" style="verticalLabelPosition=bottom;verticalAlign=top;html=1;shape=mxgraph.basic.tick;startSize=0;fillColor=#000000;" vertex="1" parent="1">
          <mxGeometry x="390" y="450" width="20" height="30" as="geometry" />
        </mxCell>
        <mxCell id="kEWfRfj77trai1BPQBJ3-134" value="" style="verticalLabelPosition=bottom;verticalAlign=top;html=1;shape=mxgraph.basic.tick;startSize=0;fillColor=#000000;" vertex="1" parent="1">
          <mxGeometry x="390" y="500" width="20" height="30" as="geometry" />
        </mxCell>
      </root>
    </mxGraphModel>
  </diagram>
  <diagram id="Wdt4UMZaOXvlTfQNeFKd" name="Suspend Customer Request">
    <mxGraphModel dx="2066" dy="826" grid="1" gridSize="10" guides="1" tooltips="1" connect="1" arrows="1" fold="1" page="1" pageScale="1" pageWidth="850" pageHeight="1100" math="0" shadow="0">
      <root>
        <mxCell id="nT1t-zKtwSFTizomRfXo-0" />
        <mxCell id="nT1t-zKtwSFTizomRfXo-1" parent="nT1t-zKtwSFTizomRfXo-0" />
      </root>
    </mxGraphModel>
  </diagram>
</mxfile>
